<svg width="50" height="50" viewBox="0 0 50 50" fill="none" xmlns="http://www.w3.org/2000/svg">
<path d="M25 0C22.2385 0 20 2.23854 20 5C20 7.76146 22.2385 10 25 10C27.7603 9.99729 29.9973 7.76031 30 5C30 2.23854 27.7615 0 25 0ZM25 8.33333C23.1591 8.33333 21.6667 6.84094 21.6667 5C21.6667 3.15906 23.1591 1.66667 25 1.66667C26.8409 1.66667 28.3333 3.15906 28.3333 5C28.3333 6.84094 26.8409 8.33333 25 8.33333Z" fill="#AB47BC"/>
<path d="M28.3333 10.8335H28.1367L27.9608 10.921C26.0961 11.8494 23.9039 11.8494 22.0392 10.921L21.8633 10.8335H21.6667C19.3667 10.8362 17.5027 12.7002 17.5 15.0002V20.0002C17.5 21.3809 18.6193 22.5002 20 22.5002H30C31.3807 22.5002 32.5 21.3809 32.5 20.0002V15.0002C32.4973 12.7002 30.6333 10.8362 28.3333 10.8335ZM30.8333 20.0002C30.8333 20.4604 30.4602 20.8335 30 20.8335H20C19.5398 20.8335 19.1667 20.4604 19.1667 20.0002V15.0002C19.1669 13.6885 20.1807 12.6 21.4892 12.5068C23.7157 13.5402 26.2844 13.5402 28.5108 12.5068C29.8192 12.6 30.8331 13.6885 30.8333 15.0002V20.0002Z" fill="#AB47BC"/>
<path d="M42.5 27.5C39.7385 27.5 37.5 29.7385 37.5 32.5C37.5 35.2615 39.7385 37.5 42.5 37.5C45.2615 37.5 47.5 35.2615 47.5 32.5C47.4973 29.7397 45.2603 27.5027 42.5 27.5ZM42.5 35.8333C40.6591 35.8333 39.1667 34.3409 39.1667 32.5C39.1667 30.6591 40.6591 29.1667 42.5 29.1667C44.3409 29.1667 45.8333 30.6591 45.8333 32.5C45.8333 34.3409 44.3409 35.8333 42.5 35.8333Z" fill="#AB47BC"/>
<path d="M45.8333 38.3335H45.6367L45.4608 38.4168C43.5961 39.3452 41.4039 39.3452 39.5392 38.4168L39.3633 38.3335H39.1667C36.8667 38.3362 35.0027 40.2002 35 42.5002V47.5002C35 48.8809 36.1193 50.0002 37.5 50.0002H47.5C48.8807 50.0002 50 48.8809 50 47.5002V42.5002C49.9973 40.2002 48.1333 38.3362 45.8333 38.3335ZM48.3333 47.5002C48.3333 47.9604 47.9602 48.3335 47.5 48.3335H37.5C37.0398 48.3335 36.6667 47.9604 36.6667 47.5002V42.5002C36.6669 41.1885 37.6807 40.1 38.9892 40.0068C41.2157 41.0402 43.7843 41.0402 46.0108 40.0068C47.3193 40.1 48.3331 41.1885 48.3333 42.5002V47.5002Z" fill="#AB47BC"/>
<path d="M7.5 27.5C4.73854 27.5 2.5 29.7385 2.5 32.5C2.5 35.2615 4.73854 37.5 7.5 37.5C10.2615 37.5 12.5 35.2615 12.5 32.5C12.4973 29.7397 10.2603 27.5027 7.5 27.5ZM7.5 35.8333C5.65906 35.8333 4.16667 34.3409 4.16667 32.5C4.16667 30.6591 5.65906 29.1667 7.5 29.1667C9.34094 29.1667 10.8333 30.6591 10.8333 32.5C10.8333 34.3409 9.34094 35.8333 7.5 35.8333Z" fill="#AB47BC"/>
<path d="M10.8333 38.3335H10.6367L10.4608 38.4168C8.59615 39.3452 6.40385 39.3452 4.53917 38.4168L4.36333 38.3335H4.16667C1.86667 38.3362 0.00270833 40.2002 0 42.5002V47.5002C0 48.8809 1.11927 50.0002 2.5 50.0002H12.5C13.8807 50.0002 15 48.8809 15 47.5002V42.5002C14.9973 40.2002 13.1333 38.3362 10.8333 38.3335ZM13.3333 47.5002C13.3333 47.9604 12.9602 48.3335 12.5 48.3335H2.5C2.03979 48.3335 1.66667 47.9604 1.66667 47.5002V42.5002C1.66688 41.1885 2.68073 40.1 3.98917 40.0068C6.21573 41.0402 8.78427 41.0402 11.0108 40.0068C12.3193 40.1 13.3331 41.1885 13.3333 42.5002V47.5002Z" fill="#AB47BC"/>
<path d="M33.2675 42.3201C33.2671 42.3191 33.2667 42.3182 33.2663 42.3172C33.0858 41.8937 32.5964 41.6967 32.173 41.8772C28.41 43.4542 24.2308 43.7419 20.2872 42.6955L21.0672 42.4663C21.5091 42.3369 21.7624 41.874 21.633 41.4322C21.5037 40.9903 21.0407 40.7369 20.5989 40.8663L17.2655 41.8438C17.253 41.8438 17.2439 41.858 17.2322 41.8622C17.155 41.8909 17.0825 41.9311 17.0172 41.9813C16.9882 41.9969 16.9604 42.0145 16.9339 42.0338C16.846 42.1123 16.7763 42.2089 16.7297 42.3172C16.6845 42.4261 16.6629 42.5434 16.6664 42.6613C16.6867 42.7741 16.7145 42.8855 16.7497 42.9947C16.7547 43.0063 16.7497 43.0197 16.7589 43.0313L18.4255 46.2205C18.6387 46.6287 19.1423 46.7869 19.5505 46.5738C19.9588 46.3607 20.117 45.8571 19.9039 45.4488L19.2255 44.1522C23.7062 45.499 28.5167 45.2373 32.8247 43.4122C33.2485 43.2329 33.4468 42.7439 33.2675 42.3201Z" fill="#AB47BC"/>
<path d="M47.2554 21.9107C46.93 21.5854 46.4025 21.5854 46.0771 21.9107L44.8979 23.0899C44.2079 15.7909 39.5739 9.45694 32.8263 6.58986C32.4028 6.40944 31.9133 6.60642 31.7329 7.02986C31.5525 7.4533 31.7495 7.94278 32.1729 8.12319C38.2261 10.6958 42.4338 16.3179 43.1954 22.8507L42.2554 21.9107C41.9244 21.5909 41.3969 21.6001 41.0771 21.9311C40.7652 22.254 40.7652 22.766 41.0771 23.089L43.5771 25.589C43.9021 25.9149 44.4298 25.9156 44.7556 25.5905C44.7562 25.59 44.7567 25.5894 44.7571 25.589L47.2571 23.089C47.582 22.7632 47.5813 22.2357 47.2554 21.9107Z" fill="#AB47BC"/>
<path d="M18.3092 7.21599C18.3065 7.16734 18.2993 7.11911 18.2875 7.07182C18.2875 7.06432 18.2783 7.05932 18.275 7.05099C18.2717 7.04265 18.275 7.03682 18.275 7.03015C18.2523 6.98963 18.226 6.95109 18.1967 6.91515C18.1697 6.8663 18.1378 6.82026 18.1017 6.77765C18.0524 6.73401 17.9978 6.69682 17.9392 6.66682C17.9099 6.64192 17.8787 6.61932 17.8458 6.59932L14.5125 5.07682C14.0868 4.90203 13.5999 5.10546 13.4251 5.53119C13.2598 5.9338 13.4322 6.39588 13.8208 6.59182L15.5467 7.38099C9.04948 10.8582 4.99532 17.631 5 25.0002C5 25.4604 5.37313 25.8335 5.83334 25.8335C6.29355 25.8335 6.66667 25.4604 6.66667 25.0002C6.6625 18.5113 10.0939 12.5052 15.6858 9.21349L15.0833 10.4727C14.8847 10.8869 15.0588 11.3838 15.4725 11.5835C15.5849 11.6384 15.7082 11.6669 15.8333 11.6668C16.1533 11.6664 16.4448 11.4828 16.5833 11.1943L18.25 7.71682C18.25 7.70849 18.25 7.69932 18.2567 7.69099C18.2783 7.63401 18.2934 7.57474 18.3017 7.51432C18.3159 7.46942 18.3266 7.42349 18.3333 7.37682C18.3305 7.32255 18.3225 7.2687 18.3092 7.21599Z" fill="#AB47BC"/>
</svg>
